<svg width="826" height="950" viewBox="0 0 826 950" fill="none" xmlns="http://www.w3.org/2000/svg">

	<rect width="826" height="950" fill="#1E1E1E"/>

	<path
		d="M216 949.5V902L223.5 900.5L232 898.5L237.5 896.5L244 893.5L249 889.5L254.5 885L258 882L263.5 877.5L267 873L270 868.5L271.5 866.5H762L771 865L777.5 862.5L782.5 860L788 856.5L793.5 851.5L799 846.5L803 841L807.5 834.5L811.5 829L814 822.5L818 814.5L820.5 808.5L822 803.5L823 799L825.5 792.5V786.5V646V639L824 633L822.5 627.5L821.5 624.5L819.5 619.5L817 616L813.5 611L810 605L805.5 600.5L802 596.5L797 592L790 587.5L713 552.5L708 548.5L703 543.5L698.5 537V530V303.5L696.5 299.5L693.5 294L689.5 291.5L685.5 288.5L679.5 286.5H674H242.5L235.5 284L228.5 281L221.5 275L216.5 268L211.5 260L208.5 251.5V243.5V46L210 39L212.5 34L216.5 31H223.5H320L332 56.5H475.5L495.5 31H660V1H188.5L183 3.5L177 9.5L172.5 15.5L170 25L169 33.5V42.5V251.5L167 261.5L164 268L159.5 273L153.5 279L145.5 284L138.5 286.5L20.5 284L12.5 287.5L7 293.5L3 301L1 308V315V478.5L3 485L7.5 490.5L13 495.5L20 500L27.5 501.5H36.5H152L158.5 505.5L163.5 511L167 517.5L169.5 524.5V570V573L160.5 575.5L154 580L148.5 584.5L143.5 590.5L140 597L137.5 603.5L136.5 609L135 616.5V624L135.5 631.5L137.5 636.5L136.5 640.5L83.5 672L91.5 690L148.5 657.5L155 663L162 667L170 669V866.5L171.5 874.5L174 880.5L176.5 887.5L179.5 894.5L181 898.5L183.5 902V949.5M589 586V628V635L585 647.5L578.5 660L571.5 673L561.5 682.5L550 688.5L538 694L520.5 697.5H424.5L404 694.5L385 692L367 688.5L351 687L336 683.5L323 678.5L309.5 673L297.5 666.5L293 660.5V637.5L295 624L297.5 611.5L302 602.5L309.5 594M589 586L585 582.5L576.5 580.5H345L337 582L327.5 585.5L319.5 588L309.5 594M589 586L587 580.5L583 576.5L576.5 574H345L336 577L327.5 580.5L319.5 585.5L309.5 594"
		stroke="#666"
	/>

	<path
		d="M285 841.5V689V685.5L286.5 686.5L290 689L294 693L301.5 697L308.5 701.5L316 705L324 708L332 711.5L342 714L350 716L358.5 718L368 719.5L376.5 721L385 722L392.5 723.5H400H407.5H414.5H526.5L534.5 723L541.5 720.5L549 718L555 715.5L560 713.5L565 711L570 709L575 705L580 701L585.5 697L590.5 692.5L594 688L598 682.5L600.5 678.5L603.5 673L606.5 667L608.5 662L611 656L613 651L615 645.5L617 640.5L618 634V578H710L719.5 579L726 581.5L733 585L740.5 588.5L747.5 592.5L753 595.5L759.5 598.5L765.5 601L771.5 605L777.5 608.5L782.5 612L787.5 615.5L791.5 619L794.5 623L797.5 628L800 633L802 638.5L803.5 644.5V650.5V787.5L802 794L799.5 800L796.5 806L793 812L789.5 817.5L786.5 822.5L782 828.5L777 834L771.5 838L764.5 840L285 841.5Z"
		stroke="#FFFF00"
	/>

	<path
		d="M231.5 322.5L244 318L644.5 322L649.5 324L652.5 328L655 331L657.5 335L658.5 340.5V530.5L656.5 537L653 542L648 546.5L641 548H357H345.5L335.5 550L323.5 552.5L313 557.5L303.5 563L294 569L286.5 575.5L280 583L274.5 591L271 600L267.5 611.5L266 621.5H236V610L234 600L231 591L224 583L216 577.5L209 573V353L213 341.5L220.5 330.5L231.5 322.5Z"
		stroke="#FFFFFF"
	/>

	<path
		d="M214 879.5H206L198 875L195 867L192.5 857.5V848V825H256V848L253 854L250 861L244.5 865.5L238.5 870.5L232.5 875L224 877.5L214 879.5Z"
		stroke="#FF00FF"
	/>

	<path
		d="M192.5 804H256V749H192.5V804Z"
		stroke="#00FF00"
	/>

	<path
		d="M256 728.5H192.5V669.5H194.5H201.5L212 665.5L221 659.5L228 651H256V728.5Z"
		stroke="#0000FF"
	/>

	<path
		d="M169.5 598L178.5 595.5L187 594.5L194.5 595.5L200.5 601.5L205 606.5L207.5 613.5L209 620.5L207.5 628L205 634L200.5 640L195.5 644L187 646.5H179.5L172 644L166.5 640L162 634L159.5 626.5V618L160.5 610L164 604.5L169.5 598Z"
		stroke="#00FFFF"
	/>

	<path
		d="M33.5 472.5L29.5 467.5V344.5V338V331V324.5L31 319L34.5 315.5L43 314H140.5L153 326.5L159 333.5L165.5 340.5L169 350V453V459.5L167 467.5L162.5 472.5L158.5 476H47.5H40.5L33.5 472.5Z"
		stroke="#FF0000"
	/>

</svg>
